PathFileType	4	(X/Y/Z)	/Users/niels/Desktop/University/Third Semester/Perception and Action/Exam/Gymnastics Motion Tracking/Code for Gym Tracking/Analyzed Data/Webcam_Backflip/id2006_1_baseline_Sports2D/id2006_1_baseline_Sports2D_px_person00.trc
DataRate	CameraRate	NumFrames	NumMarkers	Units	OrigDataRate	OrigDataStartFrame	OrigNumFrames
29.782608695652176	29.782608695652176	10	22	m	29.782608695652176	103	138
Frame#	Time	Hip			RHip			RKnee			RAnkle			RBigToe			RSmallToe			RHeel			LHip			LKnee			LAnkle			LBigToe			LSmallToe			LHeel			Neck			Head			Nose			RShoulder			RElbow			RWrist			LShoulder			LElbow			LWrist		
		X1	Y1	Z1	X2	Y2	Z2	X3	Y3	Z3	X4	Y4	Z4	X5	Y5	Z5	X6	Y6	Z6	X7	Y7	Z7	X8	Y8	Z8	X9	Y9	Z9	X10	Y10	Z10	X11	Y11	Z11	X12	Y12	Z12	X13	Y13	Z13	X14	Y14	Z14	X15	Y15	Z15	X16	Y16	Z16	X17	Y17	Z17	X18	Y18	Z18	X19	Y19	Z19	X20	Y20	Z20	X21	Y21	Z21	X22	Y22	Z22
103	3.458394160583941	1.005333685812207	-0.7046068394420993	0.0	0.9520687618303282	-0.7007428496017534	0.0	1.1843231380839592	-0.47789585300312837	0.0	1.4060548208740722	-0.7896276939664137	0.0	1.542081557909324	-0.7240240994398706	0.0	1.518950371209758	-0.7743913410668439	0.0	1.4229195860999442	-0.8436755339831341	0.0	1.0612632563199857	-0.7241047466016477	0.0	1.220892315106849	-0.5868333702077865	0.0	1.426705649165017	-0.7603135061672902	0.0	1.506502648513066	-0.6977351094003944	0.0	1.5208994553849278	-0.7116972365913808	0.0	1.327616122701147	-0.8424755774013767	0.0	1.0005827488393202	-0.31573728844450066	0.0	1.036089457794683	-0.14414380313779776	0.0	1.0398082776578752	-0.24235487531263153	0.0	0.8902064967006392	-0.3462507131307589	0.0	0.8310645236449882	-0.536023886093911	0.0	0.8845044074617606	-0.7253557917028728	0.0	1.087390595899615	-0.37638571296002854	0.0	1.1238167907119796	-0.5363806364933158	0.0	1.152277627609435	-0.5952164684165895	0.0
104	3.4919708029197074	1.0078722584152735	-0.7053778788994656	0.0	0.9522492307043311	-0.7034452693046922	0.0	1.1835290052593288	-0.47881520373139075	0.0	1.4190375230991878	-0.7856329361004815	0.0	1.546221975065478	-0.7119044565118945	0.0	1.5264423439184245	-0.7617983488944547	0.0	1.4388881766446335	-0.8413465990324129	0.0	1.067363543959513	-0.7218137785974135	0.0	1.2371931216760774	-0.5560454677952212	0.0	1.4370485467905094	-0.7603314107620398	0.0	1.5157468273071344	-0.6985253190261032	0.0	1.5283681827782185	-0.7154292758726689	0.0	1.2695856421568086	-0.8436218019157039	0.0	0.9984673855695766	-0.31805331978941964	0.0	1.030827921254432	-0.147532412131886	0.0	1.0355570576315656	-0.24531888370551444	0.0	0.8866482887286232	-0.3487946168317386	0.0	0.8306345758238197	-0.5415727166412586	0.0	0.8958127758318933	-0.7251900061385665	0.0	1.0879408103441055	-0.3764712874589788	0.0	1.1292373115118395	-0.536779393716509	0.0	1.1650225046442244	-0.6090038431368424	0.0
105	3.525547445255474	1.007407292603511	-0.7062655413497101	0.0	0.9497869041328508	-0.7052466278412721	0.0	1.1855418777507523	-0.4850661441819984	0.0	1.4267786978597907	-0.7903720002043149	0.0	1.544556959086522	-0.7202337256421607	0.0	1.526782118314884	-0.7643229189174648	0.0	1.447458149457666	-0.8462636511229498	0.0	1.0687740848025817	-0.7214453150926986	0.0	1.2238675116161442	-0.5944005506212836	0.0	1.4436932334307087	-0.7666660434865811	0.0	1.5259263279787245	-0.6989557857383025	0.0	1.5334615089228822	-0.7240584626170374	0.0	1.218160124987087	-0.8450182211389997	0.0	0.9961925775563198	-0.3199357128832511	0.0	1.0260386757408244	-0.14986589204480819	0.0	1.031508474255338	-0.2469642570058143	0.0	0.8834281007160679	-0.3509160259468233	0.0	0.829524971722553	-0.5458809029561382	0.0	0.9032453674508375	-0.7245942106806829	0.0	1.0883227346441884	-0.37675835793448303	0.0	1.13274955210516	-0.5369808372212123	0.0	1.1744921531367452	-0.6214127803253202	0.0
106	3.55912408759124	1.0047095709001768	-0.7070910031628604	0.0	0.9458370066725471	-0.7061675720896058	0.0	1.189170168058957	-0.4947369401243846	0.0	1.4287490329348094	-0.8022781578793841	0.0	1.5371691184389946	-0.7461920923027927	0.0	1.5197136856353413	-0.7823451332993365	0.0	1.4480568079579057	-0.8568381309946219	0.0	1.066483375659113	-0.7226472276261955	0.0	1.1843173701422194	-0.6902480876994705	0.0	1.4466995862308427	-0.7771029826961533	0.0	1.534618584265874	-0.6990338407871823	0.0	1.5341335018943405	-0.7396536333597616	0.0	1.1820267075016984	-0.8462905666668984	0.0	0.9940563341551776	-0.32127666693581086	0.0	1.0218972650464844	-0.15109200296924563	0.0	1.0278949042658103	-0.24740659734675702	0.0	0.8806060733680035	-0.3525445307215153	0.0	0.827673023092335	-0.5488542358283716	0.0	0.9066999916330529	-0.7240714222349769	0.0	1.0885874904909094	-0.37712834214736696	0.0	1.1340055217566254	-0.5367237122392536	0.0	1.1786374020864443	-0.6307826517539198	0.0
107	3.5927007299270066	1.000605486464576	-0.7072323872089419	0.0	0.9416286233911897	-0.7061973852211592	0.0	1.1935300150655321	-0.5063985266329541	0.0	1.4249196165058797	-0.8200065576133775	0.0	1.5258392603721578	-0.7829730630478826	0.0	1.5069990428796778	-0.8117970299372539	0.0	1.4411845003537451	-0.8727346775104611	0.0	1.0617208213515885	-0.7238335454189938	0.0	1.1303076465779243	-0.8133806137386943	0.0	1.4461749296697313	-0.789641517537816	0.0	1.5405613860868033	-0.6988840653529265	0.0	1.5299471381157477	-0.7631998530377685	0.0	1.1618867781950244	-0.8471758620686309	0.0	0.9923589084353842	-0.3218664125169879	0.0	1.0183796528651803	-0.15132785393605588	0.0	1.025002000490858	-0.24671823508290988	0.0	0.8782948510000068	-0.35350850308962656	0.0	0.8250228437156452	-0.5505189965252674	0.0	0.9064100320149557	-0.7238578764857426	0.0	1.088794855883749	-0.3773529855079674	0.0	1.1337778454235088	-0.536101880014741	0.0	1.1764263183266974	-0.6355560899153841	0.0
108	3.626277372262773	0.995757752117327	-0.7061172946674072	0.0	0.937938615438903	-0.7052988930323917	0.0	1.1981977155105832	-0.5192688385214402	0.0	1.4157758326815404	-0.8426042302912612	0.0	1.5134210725958492	-0.8224045596500296	0.0	1.4917102674250207	-0.8460804370332133	0.0	1.4282265919460317	-0.8940525395326303	0.0	1.0552983904754132	-0.7235223042884195	0.0	1.0771723951253074	-0.9269812526615364	0.0	1.4418535905147523	-0.8030279872343746	0.0	1.5437948363372733	-0.6986638014699834	0.0	1.5218896432525333	-0.7935974945541678	0.0	1.153763739098631	-0.8476540684047151	0.0	0.991174756124275	-0.3214770527978695	0.0	1.0154905982652198	-0.15072389495774993	0.0	1.0230484469957797	-0.2449610808807207	0.0	0.876599549074533	-0.35359377678960097	0.0	0.8215257788661615	-0.5508726286947279	0.0	0.9028184873665198	-0.7238912257530916	0.0	1.0888585647368785	-0.3772405126834281	0.0	1.1327990512514983	-0.5356578398554427	0.0	1.1682508844333601	-0.6345520245537317	0.0
109	3.6598540145985394	0.9908097552127393	-0.7034678747831726	0.0	0.9350278581587749	-0.7033955205167856	0.0	1.2029931142632424	-0.5331956383498816	0.0	1.4020706183812346	-0.8691940041796095	0.0	1.5018169714735634	-0.8592283423776115	0.0	1.4764279116094476	-0.8801500115267146	0.0	1.4107387345167417	-0.9200809341844743	0.0	1.0475790061531611	-0.7212235584778282	0.0	1.0353658730373585	-1.007456625992278	0.0	1.4329436380233205	-0.8172859838643076	0.0	1.5450374088406449	-0.6984738716849821	0.0	1.511623711666124	-0.827906554778049	0.0	1.1527930587934234	-0.847835197566428	0.0	0.9903254219977348	-0.3200027812623065	0.0	1.0133488729644144	-0.14934835920090572	0.0	1.0219550771566674	-0.24222831043865942	0.0	0.875417417229948	-0.35271870074637707	0.0	0.8172249287819342	-0.5498832755209418	0.0	0.8964957815301972	-0.7238158510790947	0.0	1.0886205513975902	-0.37681840164934516	0.0	1.1315383152682308	-0.5359930351327156	0.0	1.1556484724085707	-0.6273646180400825	0.0
110	3.693430656934306	0.9863438417609616	-0.6993125078063261	0.0	0.9327902206056702	-0.7004895411165996	0.0	1.207756325853064	-0.5486003739550862	0.0	1.3845432019948283	-0.89878055728568	0.0	1.491396931107343	-0.892339983148865	0.0	1.462251122192823	-0.9121888185711944	0.0	1.3896544273595195	-0.9491290808254373	0.0	1.0389793200803128	-0.7172066002608153	0.0	1.0072105585548639	-1.0515114671699377	0.0	1.4185801365714845	-0.8342176774947548	0.0	1.5451228715542322	-0.6983477109267557	0.0	1.5008925081747522	-0.8623210581061282	0.0	1.1550367936507604	-0.8478448203269519	0.0	0.9895664430538812	-0.31753007147890255	0.0	1.0119969603609495	-0.14720064636152527	0.0	1.0212884202533714	-0.23868914897153015	0.0	0.8743947822357226	-0.3510804410689054	0.0	0.8123068483638974	-0.5476228447217703	0.0	0.8881526910050731	-0.7231018503236057	0.0	1.0879950169463153	-0.3763209470769315	0.0	1.1308653360356316	-0.537360502247949	0.0	1.1407782049527477	-0.6149618366701447	0.0
111	3.7270072992700722	0.9826427597650015	-0.6939662579352884	0.0	0.9308432586829848	-0.6967570294390902	0.0	1.2123711521202356	-0.5662370481035245	0.0	1.3637545851229302	-0.9303152629815388	0.0	1.4816409361688427	-0.9227067730021903	0.0	1.4488923850632505	-0.9424038678359599	0.0	1.3651713566659749	-0.9791360203918863	0.0	1.0302532169223428	-0.7119192343002675	0.0	0.9900634213087756	-1.067775950688317	0.0	1.3983606534613484	-0.8572913789557773	0.0	1.5447076178544143	-0.698281914958692	0.0	1.491217844761245	-0.8929849874944416	0.0	1.1580020372267958	-0.8477810485471944	0.0	0.9886557066616973	-0.3143259931166265	0.0	1.011298206951748	-0.14430938860415715	0.0	1.020525527790548	-0.2346353430045428	0.0	0.8730902375073147	-0.3490704998763251	0.0	0.8070725814231265	-0.544376821683157	0.0	0.8786762930531583	-0.7212549916171288	0.0	1.0869113344656052	-0.3759943842993829	0.0	1.1318650771875018	-0.539600499813448	0.0	1.1260408949780456	-0.5998785200375917	0.0
112	3.760583941605839	0.979594192348717	-0.6880854169019501	0.0	0.9287245035855444	-0.6925785066171312	0.0	1.2169141902309322	-0.5869509450878158	0.0	1.3400324714449008	-0.9626229059990886	0.0	1.4718806626501266	-0.9508507601730384	0.0	1.4356811680364752	-0.9708599023741326	0.0	1.337293869298452	-1.0080940745398617	0.0	1.0220939015599417	-0.7058384824857352	0.0	0.9800732674907766	-1.0674005418466765	0.0	1.372443232188445	-0.8900545807127094	0.0	1.5441977118271686	-0.6982587908126623	0.0	1.4836999339459798	-0.9167940318606457	0.0	1.1604650354846733	-0.8477041863553969	0.0	0.9873255464774771	-0.31080972975475735	0.0	1.010997288229997	-0.1408312417744418	0.0	1.019365961280667	-0.23046505017472832	0.0	0.8711920585332384	-0.34700029599566085	0.0	0.8017980561953595	-0.5405341785630151	0.0	0.8690629761330061	-0.7179867204823667	0.0	1.08524308819981	-0.37587797752704755	0.0	1.1348722376944096	-0.5422986569863915	0.0	1.1136242759503059	-0.5852916612940361	0.0
